STARTFONT 2.1
FONT -Monotype-Bembo-Bold-R-Normal--8-80-72-72-P-45-ISO8859-1
SIZE 8 72 72
FONTBOUNDINGBOX 11 10 -2 -2

STARTPROPERTIES 22
FONTNAME_REGISTRY "-"
FOUNDRY "Monotype"
FAMILY_NAME "Bembo"
WEIGHT_NAME "Bold"
SLANT "R"
SETWIDTH_NAME "Normal"
ADD_STYLE_NAME ""
PIXEL_SIZE 8
POINT_SIZE 80
RESOLUTION_X 72
RESOLUTION_Y 72
SPACING "P"
CHARSET_REGISTRY "ISO8859"
CHARSET_ENCODING "1"
FULL_NAME "Bembo-Bold"
AVERAGE_WIDTH 45
WEIGHT 10
X_HEIGHT 4
QUAD_WIDTH 5
DEFAULT_CHAR 32
FONT_DESCENT 2
FONT_ASCENT 7
ENDPROPERTIES

CHARS 190

STARTCHAR space
ENCODING 32
SWIDTH 278 0
DWIDTH 2 0
BBX 1 1 0 0
BITMAP
00
ENDCHAR

STARTCHAR exclam
ENCODING 33
SWIDTH 313 0
DWIDTH 3 0
BBX 1 6 1 0
BITMAP
80
80
80
80
00
80
ENDCHAR

STARTCHAR quotedbl
ENCODING 34
SWIDTH 552 0
DWIDTH 4 0
BBX 3 3 1 3
BITMAP
A0
A0
A0
ENDCHAR

STARTCHAR numbersign
ENCODING 35
SWIDTH 668 0
DWIDTH 5 0
BBX 5 5 0 1
BITMAP
58
F8
50
F8
B0
ENDCHAR

STARTCHAR dollar
ENCODING 36
SWIDTH 479 0
DWIDTH 4 0
BBX 4 7 0 -1
BITMAP
F0
C0
C0
70
D0
F0
40
ENDCHAR

STARTCHAR percent
ENCODING 37
SWIDTH 896 0
DWIDTH 7 0
BBX 7 6 0 0
BITMAP
E4
A8
EE
16
16
26
ENDCHAR

STARTCHAR ampersand
ENCODING 38
SWIDTH 750 0
DWIDTH 6 0
BBX 6 6 0 0
BITMAP
70
50
2C
F8
98
EC
ENDCHAR

STARTCHAR quoteright
ENCODING 39
SWIDTH 313 0
DWIDTH 3 0
BBX 1 3 1 3
BITMAP
80
80
80
ENDCHAR

STARTCHAR parenleft
ENCODING 40
SWIDTH 354 0
DWIDTH 3 0
BBX 2 8 1 -2
BITMAP
40
80
80
80
80
80
80
40
ENDCHAR

STARTCHAR parenright
ENCODING 41
SWIDTH 344 0
DWIDTH 3 0
BBX 2 8 0 -2
BITMAP
80
40
40
40
40
40
40
80
ENDCHAR

STARTCHAR asterisk
ENCODING 42
SWIDTH 521 0
DWIDTH 4 0
BBX 4 3 0 2
BITMAP
40
F0
60
ENDCHAR

STARTCHAR plus
ENCODING 43
SWIDTH 667 0
DWIDTH 5 0
BBX 5 5 0 1
BITMAP
20
20
F8
20
20
ENDCHAR

STARTCHAR comma
ENCODING 44
SWIDTH 313 0
DWIDTH 3 0
BBX 1 3 1 -2
BITMAP
80
80
80
ENDCHAR

STARTCHAR minus
ENCODING 45
SWIDTH 667 0
DWIDTH 5 0
BBX 4 1 1 2
BITMAP
F0
ENDCHAR

STARTCHAR period
ENCODING 46
SWIDTH 313 0
DWIDTH 3 0
BBX 1 1 1 0
BITMAP
80
ENDCHAR

STARTCHAR slash
ENCODING 47
SWIDTH 531 0
DWIDTH 3 0
BBX 3 8 0 -2
BITMAP
20
40
40
40
40
80
80
80
ENDCHAR

STARTCHAR zero
ENCODING 48
SWIDTH 500 0
DWIDTH 4 0
BBX 3 6 0 0
BITMAP
40
A0
A0
A0
A0
40
ENDCHAR

STARTCHAR one
ENCODING 49
SWIDTH 500 0
DWIDTH 4 0
BBX 3 6 0 0
BITMAP
C0
40
40
40
40
E0
ENDCHAR

STARTCHAR two
ENCODING 50
SWIDTH 500 0
DWIDTH 4 0
BBX 3 6 0 0
BITMAP
E0
A0
20
20
60
E0
ENDCHAR

STARTCHAR three
ENCODING 51
SWIDTH 500 0
DWIDTH 4 0
BBX 3 6 0 0
BITMAP
60
A0
60
20
20
C0
ENDCHAR

STARTCHAR four
ENCODING 52
SWIDTH 500 0
DWIDTH 4 0
BBX 4 6 0 0
BITMAP
20
60
60
A0
F0
20
ENDCHAR

STARTCHAR five
ENCODING 53
SWIDTH 500 0
DWIDTH 4 0
BBX 3 6 0 0
BITMAP
E0
80
E0
20
20
C0
ENDCHAR

STARTCHAR six
ENCODING 54
SWIDTH 500 0
DWIDTH 4 0
BBX 3 6 1 0
BITMAP
60
80
E0
A0
A0
60
ENDCHAR

STARTCHAR seven
ENCODING 55
SWIDTH 500 0
DWIDTH 4 0
BBX 4 6 0 0
BITMAP
F0
90
20
20
60
40
ENDCHAR

STARTCHAR eight
ENCODING 56
SWIDTH 500 0
DWIDTH 4 0
BBX 3 6 0 0
BITMAP
E0
A0
C0
A0
A0
E0
ENDCHAR

STARTCHAR nine
ENCODING 57
SWIDTH 500 0
DWIDTH 4 0
BBX 3 6 0 0
BITMAP
C0
A0
A0
E0
20
C0
ENDCHAR

STARTCHAR colon
ENCODING 58
SWIDTH 313 0
DWIDTH 3 0
BBX 1 4 1 0
BITMAP
80
00
00
80
ENDCHAR

STARTCHAR semicolon
ENCODING 59
SWIDTH 313 0
DWIDTH 3 0
BBX 1 6 1 -2
BITMAP
80
00
00
80
80
80
ENDCHAR

STARTCHAR less
ENCODING 60
SWIDTH 667 0
DWIDTH 5 0
BBX 4 4 1 1
BITMAP
30
E0
E0
30
ENDCHAR

STARTCHAR equal
ENCODING 61
SWIDTH 667 0
DWIDTH 5 0
BBX 4 3 1 1
BITMAP
F0
00
F0
ENDCHAR

STARTCHAR greater
ENCODING 62
SWIDTH 667 0
DWIDTH 5 0
BBX 4 4 1 1
BITMAP
C0
70
70
C0
ENDCHAR

STARTCHAR question
ENCODING 63
SWIDTH 365 0
DWIDTH 3 0
BBX 2 6 1 0
BITMAP
C0
40
C0
80
00
80
ENDCHAR

STARTCHAR at
ENCODING 64
SWIDTH 927 0
DWIDTH 7 0
BBX 7 8 0 -2
BITMAP
3C
5E
AE
AA
AA
BE
44
38
ENDCHAR

STARTCHAR A
ENCODING 65
SWIDTH 740 0
DWIDTH 6 0
BBX 6 6 0 0
BITMAP
20
50
50
78
48
DC
ENDCHAR

STARTCHAR B
ENCODING 66
SWIDTH 698 0
DWIDTH 6 0
BBX 5 6 0 0
BITMAP
F8
48
70
48
48
F0
ENDCHAR

STARTCHAR C
ENCODING 67
SWIDTH 740 0
DWIDTH 6 0
BBX 5 6 1 0
BITMAP
78
C8
80
80
C8
78
ENDCHAR

STARTCHAR D
ENCODING 68
SWIDTH 823 0
DWIDTH 7 0
BBX 6 6 0 0
BITMAP
F8
4C
44
44
4C
F8
ENDCHAR

STARTCHAR E
ENCODING 69
SWIDTH 646 0
DWIDTH 5 0
BBX 5 6 0 0
BITMAP
F8
48
78
48
48
F8
ENDCHAR

STARTCHAR F
ENCODING 70
SWIDTH 594 0
DWIDTH 5 0
BBX 5 6 0 0
BITMAP
F8
48
78
48
40
E0
ENDCHAR

STARTCHAR G
ENCODING 71
SWIDTH 781 0
DWIDTH 6 0
BBX 6 6 0 0
BITMAP
78
C8
80
9C
C8
78
ENDCHAR

STARTCHAR H
ENCODING 72
SWIDTH 833 0
DWIDTH 7 0
BBX 7 6 0 0
BITMAP
EE
44
7C
44
44
EE
ENDCHAR

STARTCHAR I
ENCODING 73
SWIDTH 365 0
DWIDTH 3 0
BBX 3 6 0 0
BITMAP
E0
40
40
40
40
E0
ENDCHAR

STARTCHAR J
ENCODING 74
SWIDTH 344 0
DWIDTH 3 0
BBX 4 8 0 -2
BITMAP
70
20
20
20
20
20
20
C0
ENDCHAR

STARTCHAR K
ENCODING 75
SWIDTH 740 0
DWIDTH 6 0
BBX 8 6 0 0
BITMAP
EE
48
70
58
44
EF
ENDCHAR

STARTCHAR L
ENCODING 76
SWIDTH 604 0
DWIDTH 5 0
BBX 5 6 0 0
BITMAP
E0
40
40
40
48
F8
ENDCHAR

STARTCHAR M
ENCODING 77
SWIDTH 927 0
DWIDTH 7 0
BBX 8 6 0 0
BITMAP
66
66
66
5A
5A
F7
ENDCHAR

STARTCHAR N
ENCODING 78
SWIDTH 813 0
DWIDTH 7 0
BBX 7 6 0 0
BITMAP
CE
64
74
5C
4C
E4
ENDCHAR

STARTCHAR O
ENCODING 79
SWIDTH 844 0
DWIDTH 7 0
BBX 6 6 0 0
BITMAP
78
CC
84
84
C4
78
ENDCHAR

STARTCHAR P
ENCODING 80
SWIDTH 646 0
DWIDTH 5 0
BBX 5 6 0 0
BITMAP
F0
48
48
70
40
E0
ENDCHAR

STARTCHAR Q
ENCODING 81
SWIDTH 844 0
DWIDTH 7 0
BBX 6 8 0 -2
BITMAP
78
CC
84
84
C4
78
10
0C
ENDCHAR

STARTCHAR R
ENCODING 82
SWIDTH 771 0
DWIDTH 6 0
BBX 6 6 0 0
BITMAP
F8
48
48
70
58
EC
ENDCHAR

STARTCHAR S
ENCODING 83
SWIDTH 563 0
DWIDTH 5 0
BBX 3 6 1 0
BITMAP
E0
A0
C0
20
A0
E0
ENDCHAR

STARTCHAR T
ENCODING 84
SWIDTH 729 0
DWIDTH 6 0
BBX 5 6 0 0
BITMAP
F8
A8
20
20
20
70
ENDCHAR

STARTCHAR U
ENCODING 85
SWIDTH 771 0
DWIDTH 6 0
BBX 7 6 0 0
BITMAP
EE
44
44
44
44
38
ENDCHAR

STARTCHAR V
ENCODING 86
SWIDTH 750 0
DWIDTH 6 0
BBX 6 6 0 0
BITMAP
EC
44
48
28
30
10
ENDCHAR

STARTCHAR W
ENCODING 87
SWIDTH 1000 0
DWIDTH 8 0
BBX 8 6 0 0
BITMAP
FF
59
5A
2A
3A
14
ENDCHAR

STARTCHAR X
ENCODING 88
SWIDTH 802 0
DWIDTH 6 0
BBX 6 6 0 0
BITMAP
EC
68
30
30
48
DC
ENDCHAR

STARTCHAR Y
ENCODING 89
SWIDTH 750 0
DWIDTH 6 0
BBX 6 6 0 0
BITMAP
EC
68
38
10
10
38
ENDCHAR

STARTCHAR Z
ENCODING 90
SWIDTH 750 0
DWIDTH 6 0
BBX 5 6 1 0
BITMAP
F8
90
10
20
48
F8
ENDCHAR

STARTCHAR bracketleft
ENCODING 91
SWIDTH 365 0
DWIDTH 3 0
BBX 2 8 1 -2
BITMAP
C0
80
80
80
80
80
80
C0
ENDCHAR

STARTCHAR backslash
ENCODING 92
SWIDTH 531 0
DWIDTH 4 0
BBX 4 6 0 0
BITMAP
80
40
40
20
20
30
ENDCHAR

STARTCHAR bracketright
ENCODING 93
SWIDTH 365 0
DWIDTH 3 0
BBX 2 8 0 -2
BITMAP
C0
40
40
40
40
40
40
C0
ENDCHAR

STARTCHAR asciicircum
ENCODING 94
SWIDTH 583 0
DWIDTH 5 0
BBX 4 3 0 3
BITMAP
60
60
90
ENDCHAR

STARTCHAR underscore
ENCODING 95
SWIDTH 500 0
DWIDTH 4 0
BBX 4 1 0 -2
BITMAP
F0
ENDCHAR

STARTCHAR quoteleft
ENCODING 96
SWIDTH 313 0
DWIDTH 3 0
BBX 1 3 1 3
BITMAP
80
80
80
ENDCHAR

STARTCHAR a
ENCODING 97
SWIDTH 479 0
DWIDTH 4 0
BBX 4 4 0 0
BITMAP
E0
A0
E0
F0
ENDCHAR

STARTCHAR b
ENCODING 98
SWIDTH 573 0
DWIDTH 5 0
BBX 5 6 0 0
BITMAP
C0
40
78
48
48
70
ENDCHAR

STARTCHAR c
ENCODING 99
SWIDTH 490 0
DWIDTH 4 0
BBX 4 4 1 0
BITMAP
60
80
90
E0
ENDCHAR

STARTCHAR d
ENCODING 100
SWIDTH 573 0
DWIDTH 5 0
BBX 5 6 0 0
BITMAP
30
10
70
90
90
F8
ENDCHAR

STARTCHAR e
ENCODING 101
SWIDTH 479 0
DWIDTH 4 0
BBX 3 4 0 0
BITMAP
60
E0
A0
E0
ENDCHAR

STARTCHAR f
ENCODING 102
SWIDTH 323 0
DWIDTH 3 0
BBX 4 6 0 0
BITMAP
30
50
E0
40
40
E0
ENDCHAR

STARTCHAR g
ENCODING 103
SWIDTH 552 0
DWIDTH 4 0
BBX 4 6 0 -2
BITMAP
F0
A0
E0
F0
90
E0
ENDCHAR

STARTCHAR h
ENCODING 104
SWIDTH 563 0
DWIDTH 5 0
BBX 5 6 0 0
BITMAP
C0
40
70
50
50
F8
ENDCHAR

STARTCHAR i
ENCODING 105
SWIDTH 292 0
DWIDTH 2 0
BBX 3 6 -1 0
BITMAP
40
00
C0
40
40
E0
ENDCHAR

STARTCHAR j
ENCODING 106
SWIDTH 281 0
DWIDTH 2 0
BBX 3 8 0 -2
BITMAP
20
00
60
20
20
20
20
C0
ENDCHAR

STARTCHAR k
ENCODING 107
SWIDTH 542 0
DWIDTH 4 0
BBX 5 6 0 0
BITMAP
C0
40
58
60
50
F8
ENDCHAR

STARTCHAR l
ENCODING 108
SWIDTH 271 0
DWIDTH 2 0
BBX 3 6 0 0
BITMAP
C0
40
40
40
40
E0
ENDCHAR

STARTCHAR m
ENCODING 109
SWIDTH 927 0
DWIDTH 7 0
BBX 9 4 0 0
BITMAP
FF00
4900
4900
FF80
ENDCHAR

STARTCHAR n
ENCODING 110
SWIDTH 573 0
DWIDTH 5 0
BBX 5 4 0 0
BITMAP
F0
50
50
F8
ENDCHAR

STARTCHAR o
ENCODING 111
SWIDTH 573 0
DWIDTH 5 0
BBX 4 4 0 0
BITMAP
60
90
90
60
ENDCHAR

STARTCHAR p
ENCODING 112
SWIDTH 573 0
DWIDTH 5 0
BBX 5 6 0 -2
BITMAP
F8
48
48
70
40
E0
ENDCHAR

STARTCHAR q
ENCODING 113
SWIDTH 573 0
DWIDTH 5 0
BBX 5 6 0 -2
BITMAP
70
90
90
F0
10
38
ENDCHAR

STARTCHAR r
ENCODING 114
SWIDTH 396 0
DWIDTH 3 0
BBX 4 4 0 0
BITMAP
F0
40
40
E0
ENDCHAR

STARTCHAR s
ENCODING 115
SWIDTH 375 0
DWIDTH 3 0
BBX 2 4 1 0
BITMAP
C0
C0
C0
C0
ENDCHAR

STARTCHAR t
ENCODING 116
SWIDTH 344 0
DWIDTH 3 0
BBX 3 5 0 0
BITMAP
40
E0
40
40
60
ENDCHAR

STARTCHAR u
ENCODING 117
SWIDTH 573 0
DWIDTH 5 0
BBX 4 4 0 0
BITMAP
E0
A0
A0
F0
ENDCHAR

STARTCHAR v
ENCODING 118
SWIDTH 521 0
DWIDTH 4 0
BBX 4 4 0 0
BITMAP
D0
50
50
20
ENDCHAR

STARTCHAR w
ENCODING 119
SWIDTH 781 0
DWIDTH 6 0
BBX 6 4 0 0
BITMAP
F4
54
68
48
ENDCHAR

STARTCHAR x
ENCODING 120
SWIDTH 531 0
DWIDTH 4 0
BBX 4 4 0 0
BITMAP
F0
60
60
B0
ENDCHAR

STARTCHAR y
ENCODING 121
SWIDTH 521 0
DWIDTH 4 0
BBX 4 6 0 -2
BITMAP
D0
60
60
20
20
C0
ENDCHAR

STARTCHAR z
ENCODING 122
SWIDTH 510 0
DWIDTH 4 0
BBX 3 4 1 0
BITMAP
E0
A0
60
E0
ENDCHAR

STARTCHAR braceleft
ENCODING 123
SWIDTH 396 0
DWIDTH 3 0
BBX 3 8 0 -2
BITMAP
60
40
40
40
80
40
40
60
ENDCHAR

STARTCHAR bar
ENCODING 124
SWIDTH 566 0
DWIDTH 5 0
BBX 1 8 2 -2
BITMAP
80
80
80
80
80
80
80
80
ENDCHAR

STARTCHAR braceright
ENCODING 125
SWIDTH 396 0
DWIDTH 3 0
BBX 3 8 0 -2
BITMAP
C0
40
40
40
60
40
40
C0
ENDCHAR

STARTCHAR asciitilde
ENCODING 126
SWIDTH 521 0
DWIDTH 4 0
BBX 4 2 0 3
BITMAP
D0
B0
ENDCHAR

STARTCHAR exclamdown
ENCODING 161
SWIDTH 313 0
DWIDTH 3 0
BBX 1 5 1 -2
BITMAP
80
00
80
80
80
ENDCHAR

STARTCHAR cent
ENCODING 162
SWIDTH 490 0
DWIDTH 4 0
BBX 3 6 1 -1
BITMAP
20
60
C0
E0
40
80
ENDCHAR

STARTCHAR sterling
ENCODING 163
SWIDTH 833 0
DWIDTH 7 0
BBX 5 8 1 -2
BITMAP
18
20
20
20
40
E0
68
B8
ENDCHAR

STARTCHAR currency
ENCODING 164
SWIDTH 667 0
DWIDTH 5 0
BBX 4 4 1 0
BITMAP
F0
90
90
F0
ENDCHAR

STARTCHAR yen
ENCODING 165
SWIDTH 500 0
DWIDTH 4 0
BBX 3 6 0 0
BITMAP
E0
E0
A0
40
40
E0
ENDCHAR

STARTCHAR brokenbar
ENCODING 166
SWIDTH 566 0
DWIDTH 5 0
BBX 1 8 2 -2
BITMAP
80
80
80
80
00
80
80
80
ENDCHAR

STARTCHAR section
ENCODING 167
SWIDTH 469 0
DWIDTH 4 0
BBX 4 8 0 -2
BITMAP
70
C0
E0
A0
50
70
30
E0
ENDCHAR

STARTCHAR dieresis
ENCODING 168
SWIDTH 333 0
DWIDTH 3 0
BBX 3 1 0 5
BITMAP
A0
ENDCHAR

STARTCHAR copyright
ENCODING 169
SWIDTH 750 0
DWIDTH 6 0
BBX 6 6 0 0
BITMAP
78
DC
C4
D4
FC
78
ENDCHAR

STARTCHAR ordfeminine
ENCODING 170
SWIDTH 365 0
DWIDTH 3 0
BBX 2 3 0 3
BITMAP
C0
C0
C0
ENDCHAR

STARTCHAR guillemotleft
ENCODING 171
SWIDTH 427 0
DWIDTH 3 0
BBX 4 3 1 1
BITMAP
60
30
E0
ENDCHAR

STARTCHAR logicalnot
ENCODING 172
SWIDTH 667 0
DWIDTH 5 0
BBX 5 3 0 1
BITMAP
F8
08
08
ENDCHAR

STARTCHAR hyphen
ENCODING 173
SWIDTH 417 0
DWIDTH 3 0
BBX 3 1 0 1
BITMAP
E0
ENDCHAR

STARTCHAR registered
ENCODING 174
SWIDTH 750 0
DWIDTH 6 0
BBX 6 6 0 0
BITMAP
78
DC
D4
E4
FC
78
ENDCHAR

STARTCHAR macron
ENCODING 175
SWIDTH 333 0
DWIDTH 3 0
BBX 3 1 0 5
BITMAP
E0
ENDCHAR

STARTCHAR degree
ENCODING 176
SWIDTH 396 0
DWIDTH 3 0
BBX 3 3 0 3
BITMAP
E0
A0
E0
ENDCHAR

STARTCHAR plusminus
ENCODING 177
SWIDTH 668 0
DWIDTH 5 0
BBX 5 7 0 -1
BITMAP
20
20
F8
20
20
20
F8
ENDCHAR

STARTCHAR twosuperior
ENCODING 178
SWIDTH 313 0
DWIDTH 2 0
BBX 2 3 -1 3
BITMAP
C0
40
C0
ENDCHAR

STARTCHAR threesuperior
ENCODING 179
SWIDTH 302 0
DWIDTH 2 0
BBX 1 3 -2 3
BITMAP
80
80
80
ENDCHAR

STARTCHAR acute
ENCODING 180
SWIDTH 333 0
DWIDTH 3 0
BBX 2 2 1 4
BITMAP
C0
80
ENDCHAR

STARTCHAR mu
ENCODING 181
SWIDTH 552 0
DWIDTH 4 0
BBX 4 7 0 -2
BITMAP
A0
A0
A0
B0
D0
80
80
ENDCHAR

STARTCHAR paragraph
ENCODING 182
SWIDTH 542 0
DWIDTH 4 0
BBX 4 8 0 -2
BITMAP
70
E0
E0
E0
E0
60
60
60
ENDCHAR

STARTCHAR periodcentered
ENCODING 183
SWIDTH 313 0
DWIDTH 3 0
BBX 1 1 1 3
BITMAP
80
ENDCHAR

STARTCHAR cedilla
ENCODING 184
SWIDTH 333 0
DWIDTH 3 0
BBX 1 2 1 -2
BITMAP
80
80
ENDCHAR

STARTCHAR onesuperior
ENCODING 185
SWIDTH 313 0
DWIDTH 2 0
BBX 1 3 -2 3
BITMAP
80
80
80
ENDCHAR

STARTCHAR ordmasculine
ENCODING 186
SWIDTH 375 0
DWIDTH 3 0
BBX 3 2 0 4
BITMAP
E0
E0
ENDCHAR

STARTCHAR guillemotright
ENCODING 187
SWIDTH 427 0
DWIDTH 3 0
BBX 4 3 0 1
BITMAP
50
A0
60
ENDCHAR

STARTCHAR onequarter
ENCODING 188
SWIDTH 823 0
DWIDTH 6 0
BBX 6 6 0 0
BITMAP
88
98
90
24
24
4C
ENDCHAR

STARTCHAR onehalf
ENCODING 189
SWIDTH 823 0
DWIDTH 6 0
BBX 6 6 0 0
BITMAP
88
98
90
2C
24
4C
ENDCHAR

STARTCHAR threequarters
ENCODING 190
SWIDTH 823 0
DWIDTH 6 0
BBX 6 6 0 0
BITMAP
88
98
90
24
24
4C
ENDCHAR

STARTCHAR questiondown
ENCODING 191
SWIDTH 365 0
DWIDTH 3 0
BBX 2 7 0 -2
BITMAP
40
00
40
40
80
80
C0
ENDCHAR

STARTCHAR Agrave
ENCODING 192
SWIDTH 740 0
DWIDTH 6 0
BBX 6 8 0 0
BITMAP
30
10
20
50
50
78
48
DC
ENDCHAR

STARTCHAR Aacute
ENCODING 193
SWIDTH 740 0
DWIDTH 6 0
BBX 6 8 0 0
BITMAP
30
20
20
50
50
78
48
DC
ENDCHAR

STARTCHAR Acircumflex
ENCODING 194
SWIDTH 740 0
DWIDTH 6 0
BBX 6 8 0 0
BITMAP
30
30
20
50
50
78
48
DC
ENDCHAR

STARTCHAR Atilde
ENCODING 195
SWIDTH 740 0
DWIDTH 6 0
BBX 6 7 0 0
BITMAP
70
20
50
50
78
48
DC
ENDCHAR

STARTCHAR Adieresis
ENCODING 196
SWIDTH 740 0
DWIDTH 6 0
BBX 6 7 0 0
BITMAP
50
20
50
50
78
48
DC
ENDCHAR

STARTCHAR Aring
ENCODING 197
SWIDTH 740 0
DWIDTH 6 0
BBX 6 8 0 0
BITMAP
30
30
20
50
50
78
48
DC
ENDCHAR

STARTCHAR AE
ENCODING 198
SWIDTH 896 0
DWIDTH 7 0
BBX 7 6 0 0
BITMAP
3E
1A
3E
7A
4A
DE
ENDCHAR

STARTCHAR Ccedilla
ENCODING 199
SWIDTH 740 0
DWIDTH 6 0
BBX 5 8 1 -2
BITMAP
78
C8
80
80
C8
78
20
20
ENDCHAR

STARTCHAR Egrave
ENCODING 200
SWIDTH 646 0
DWIDTH 5 0
BBX 5 8 0 0
BITMAP
60
20
F8
48
78
48
48
F8
ENDCHAR

STARTCHAR Eacute
ENCODING 201
SWIDTH 646 0
DWIDTH 5 0
BBX 5 8 0 0
BITMAP
30
20
F8
48
78
48
48
F8
ENDCHAR

STARTCHAR Ecircumflex
ENCODING 202
SWIDTH 646 0
DWIDTH 5 0
BBX 5 8 0 0
BITMAP
30
30
F8
48
78
48
48
F8
ENDCHAR

STARTCHAR Edieresis
ENCODING 203
SWIDTH 646 0
DWIDTH 5 0
BBX 5 7 0 0
BITMAP
50
F8
48
78
48
48
F8
ENDCHAR

STARTCHAR Igrave
ENCODING 204
SWIDTH 365 0
DWIDTH 3 0
BBX 3 8 0 0
BITMAP
C0
40
E0
40
40
40
40
E0
ENDCHAR

STARTCHAR Iacute
ENCODING 205
SWIDTH 365 0
DWIDTH 3 0
BBX 3 8 0 0
BITMAP
60
40
E0
40
40
40
40
E0
ENDCHAR

STARTCHAR Icircumflex
ENCODING 206
SWIDTH 365 0
DWIDTH 3 0
BBX 3 8 0 0
BITMAP
C0
C0
E0
40
40
40
40
E0
ENDCHAR

STARTCHAR Idieresis
ENCODING 207
SWIDTH 365 0
DWIDTH 3 0
BBX 3 7 0 0
BITMAP
A0
E0
40
40
40
40
E0
ENDCHAR

STARTCHAR Eth
ENCODING 208
SWIDTH 823 0
DWIDTH 7 0
BBX 6 6 0 0
BITMAP
F8
4C
E4
44
4C
F8
ENDCHAR

STARTCHAR Ntilde
ENCODING 209
SWIDTH 813 0
DWIDTH 7 0
BBX 7 7 0 0
BITMAP
38
CE
64
74
5C
4C
E4
ENDCHAR

STARTCHAR Ograve
ENCODING 210
SWIDTH 844 0
DWIDTH 7 0
BBX 6 8 0 0
BITMAP
30
10
78
CC
84
84
C4
78
ENDCHAR

STARTCHAR Oacute
ENCODING 211
SWIDTH 844 0
DWIDTH 7 0
BBX 6 8 0 0
BITMAP
30
20
78
CC
84
84
C4
78
ENDCHAR

STARTCHAR Ocircumflex
ENCODING 212
SWIDTH 844 0
DWIDTH 7 0
BBX 6 8 0 0
BITMAP
30
30
78
CC
84
84
C4
78
ENDCHAR

STARTCHAR Otilde
ENCODING 213
SWIDTH 844 0
DWIDTH 7 0
BBX 6 7 0 0
BITMAP
70
78
CC
84
84
C4
78
ENDCHAR

STARTCHAR Odieresis
ENCODING 214
SWIDTH 844 0
DWIDTH 7 0
BBX 6 7 0 0
BITMAP
50
78
CC
84
84
C4
78
ENDCHAR

STARTCHAR multiply
ENCODING 215
SWIDTH 667 0
DWIDTH 5 0
BBX 4 5 1 1
BITMAP
90
60
60
60
90
ENDCHAR

STARTCHAR Oslash
ENCODING 216
SWIDTH 844 0
DWIDTH 7 0
BBX 6 6 0 0
BITMAP
7C
CC
9C
94
E4
78
ENDCHAR

STARTCHAR Ugrave
ENCODING 217
SWIDTH 771 0
DWIDTH 6 0
BBX 7 8 0 0
BITMAP
30
10
EE
44
44
44
44
38
ENDCHAR

STARTCHAR Uacute
ENCODING 218
SWIDTH 771 0
DWIDTH 6 0
BBX 7 8 0 0
BITMAP
18
10
EE
44
44
44
44
38
ENDCHAR

STARTCHAR Ucircumflex
ENCODING 219
SWIDTH 771 0
DWIDTH 6 0
BBX 7 8 0 0
BITMAP
30
30
EE
44
44
44
44
38
ENDCHAR

STARTCHAR Udieresis
ENCODING 220
SWIDTH 771 0
DWIDTH 6 0
BBX 7 7 0 0
BITMAP
28
EE
44
44
44
44
38
ENDCHAR

STARTCHAR Yacute
ENCODING 221
SWIDTH 750 0
DWIDTH 6 0
BBX 6 8 0 0
BITMAP
30
20
EC
68
38
10
10
38
ENDCHAR

STARTCHAR Thorn
ENCODING 222
SWIDTH 646 0
DWIDTH 5 0
BBX 5 6 0 0
BITMAP
E0
70
48
48
70
E0
ENDCHAR

STARTCHAR germandbls
ENCODING 223
SWIDTH 563 0
DWIDTH 5 0
BBX 5 6 0 0
BITMAP
78
58
50
48
48
F0
ENDCHAR

STARTCHAR agrave
ENCODING 224
SWIDTH 479 0
DWIDTH 4 0
BBX 4 6 0 0
BITMAP
60
20
E0
A0
E0
F0
ENDCHAR

STARTCHAR aacute
ENCODING 225
SWIDTH 479 0
DWIDTH 4 0
BBX 4 6 0 0
BITMAP
60
40
E0
A0
E0
F0
ENDCHAR

STARTCHAR acircumflex
ENCODING 226
SWIDTH 479 0
DWIDTH 4 0
BBX 4 6 0 0
BITMAP
60
60
E0
A0
E0
F0
ENDCHAR

STARTCHAR atilde
ENCODING 227
SWIDTH 479 0
DWIDTH 4 0
BBX 4 5 0 0
BITMAP
E0
E0
A0
E0
F0
ENDCHAR

STARTCHAR adieresis
ENCODING 228
SWIDTH 479 0
DWIDTH 4 0
BBX 4 5 0 0
BITMAP
A0
E0
A0
E0
F0
ENDCHAR

STARTCHAR aring
ENCODING 229
SWIDTH 479 0
DWIDTH 4 0
BBX 4 6 0 0
BITMAP
60
60
E0
A0
E0
F0
ENDCHAR

STARTCHAR ae
ENCODING 230
SWIDTH 698 0
DWIDTH 6 0
BBX 6 4 0 0
BITMAP
F8
B8
E4
F8
ENDCHAR

STARTCHAR ccedilla
ENCODING 231
SWIDTH 490 0
DWIDTH 4 0
BBX 4 6 1 -2
BITMAP
60
80
90
E0
40
40
ENDCHAR

STARTCHAR egrave
ENCODING 232
SWIDTH 479 0
DWIDTH 4 0
BBX 3 6 0 0
BITMAP
C0
40
60
E0
A0
E0
ENDCHAR

STARTCHAR eacute
ENCODING 233
SWIDTH 479 0
DWIDTH 4 0
BBX 3 6 0 0
BITMAP
60
40
60
E0
A0
E0
ENDCHAR

STARTCHAR ecircumflex
ENCODING 234
SWIDTH 479 0
DWIDTH 4 0
BBX 3 6 0 0
BITMAP
C0
C0
60
E0
A0
E0
ENDCHAR

STARTCHAR edieresis
ENCODING 235
SWIDTH 479 0
DWIDTH 4 0
BBX 3 5 0 0
BITMAP
A0
60
E0
A0
E0
ENDCHAR

STARTCHAR igrave
ENCODING 236
SWIDTH 292 0
DWIDTH 2 0
BBX 3 6 0 0
BITMAP
C0
40
C0
40
40
E0
ENDCHAR

STARTCHAR iacute
ENCODING 237
SWIDTH 292 0
DWIDTH 2 0
BBX 3 6 0 0
BITMAP
60
40
C0
40
40
E0
ENDCHAR

STARTCHAR icircumflex
ENCODING 238
SWIDTH 292 0
DWIDTH 2 0
BBX 3 6 0 0
BITMAP
60
60
C0
40
40
E0
ENDCHAR

STARTCHAR idieresis
ENCODING 239
SWIDTH 292 0
DWIDTH 2 0
BBX 3 5 0 0
BITMAP
A0
C0
40
40
E0
ENDCHAR

STARTCHAR eth
ENCODING 240
SWIDTH 563 0
DWIDTH 5 0
BBX 4 6 0 0
BITMAP
60
50
70
90
90
60
ENDCHAR

STARTCHAR ntilde
ENCODING 241
SWIDTH 573 0
DWIDTH 5 0
BBX 5 5 0 0
BITMAP
70
F0
50
50
F8
ENDCHAR

STARTCHAR ograve
ENCODING 242
SWIDTH 573 0
DWIDTH 5 0
BBX 4 6 0 0
BITMAP
60
20
60
90
90
60
ENDCHAR

STARTCHAR oacute
ENCODING 243
SWIDTH 573 0
DWIDTH 5 0
BBX 4 6 0 0
BITMAP
60
40
60
90
90
60
ENDCHAR

STARTCHAR ocircumflex
ENCODING 244
SWIDTH 573 0
DWIDTH 5 0
BBX 4 6 0 0
BITMAP
60
60
60
90
90
60
ENDCHAR

STARTCHAR otilde
ENCODING 245
SWIDTH 573 0
DWIDTH 5 0
BBX 4 5 0 0
BITMAP
E0
60
90
90
60
ENDCHAR

STARTCHAR odieresis
ENCODING 246
SWIDTH 573 0
DWIDTH 5 0
BBX 4 5 0 0
BITMAP
A0
60
90
90
60
ENDCHAR

STARTCHAR divide
ENCODING 247
SWIDTH 668 0
DWIDTH 5 0
BBX 5 5 0 1
BITMAP
20
00
F8
00
20
ENDCHAR

STARTCHAR oslash
ENCODING 248
SWIDTH 573 0
DWIDTH 5 0
BBX 4 4 0 0
BITMAP
70
D0
90
60
ENDCHAR

STARTCHAR ugrave
ENCODING 249
SWIDTH 573 0
DWIDTH 5 0
BBX 4 6 0 0
BITMAP
60
20
E0
A0
A0
F0
ENDCHAR

STARTCHAR uacute
ENCODING 250
SWIDTH 573 0
DWIDTH 5 0
BBX 4 6 0 0
BITMAP
60
40
E0
A0
A0
F0
ENDCHAR

STARTCHAR ucircumflex
ENCODING 251
SWIDTH 573 0
DWIDTH 5 0
BBX 4 6 0 0
BITMAP
60
60
E0
A0
A0
F0
ENDCHAR

STARTCHAR udieresis
ENCODING 252
SWIDTH 573 0
DWIDTH 5 0
BBX 4 5 0 0
BITMAP
A0
E0
A0
A0
F0
ENDCHAR

STARTCHAR yacute
ENCODING 253
SWIDTH 521 0
DWIDTH 4 0
BBX 4 8 0 -2
BITMAP
60
40
D0
60
60
20
20
C0
ENDCHAR

STARTCHAR thorn
ENCODING 254
SWIDTH 573 0
DWIDTH 5 0
BBX 5 8 0 -2
BITMAP
C0
40
78
48
48
70
40
E0
ENDCHAR

STARTCHAR ydieresis
ENCODING 255
SWIDTH 521 0
DWIDTH 4 0
BBX 4 7 0 -2
BITMAP
50
D0
60
60
20
20
C0
ENDCHAR
ENDFONT
